<svg width="302" height="9" viewBox="0 0 302 9" fill="none" xmlns="http://www.w3.org/2000/svg">
<mask id="mask0_1_150" style="mask-type:alpha" maskUnits="userSpaceOnUse" x="0" y="0" width="302" height="9">
<rect width="302" height="8.1974" fill="#C4C4C4"/>
</mask>
<g mask="url(#mask0_1_150)">
<path d="M45.3616 -1.73345L46.0996 -1.8415L44.6634 -1.99642L45.3519 -2.10982C46.0423 -2.10878 46.9368 -1.93886 47.4236 -2.02915C47.483 -2.11656 46.7313 -2.14461 46.5394 -2.21426C46.3697 -2.28565 46.2311 -2.35657 46.1254 -2.42617C46.5014 -2.42542 46.9148 -2.40858 47.341 -2.37665C47.9143 -2.3245 48.4766 -2.29914 48.9658 -2.30339C49.9663 -2.28931 50.9329 -2.30336 52.0207 -2.30026L51.6588 -2.51064L53.0606 -2.46142C53.2092 -2.4454 53.3863 -2.47117 53.5323 -2.45134C54.7472 -2.28359 55.2613 -2.375 55.8445 -2.4508C55.9641 -2.47041 56.1082 -2.48506 56.2729 -2.49435C57.8936 -2.45416 59.3551 -2.21902 60.8147 -2.09831C61.0894 -2.06748 61.3529 -2.02792 61.5865 -1.98243C62.0941 -1.89398 62.6588 -1.82176 63.2289 -1.77239C63.799 -1.72302 64.3562 -1.69807 64.8497 -1.69981C65.941 -1.70176 67.1738 -1.64326 68.4291 -1.52996C68.8023 -1.49264 69.1758 -1.46802 69.5258 -1.45767C69.8757 -1.44732 70.1945 -1.45146 70.4615 -1.46984L71.3102 -1.34975C71.6781 -1.39848 72.1445 -1.42522 72.6812 -1.42834C73.218 -1.43145 73.8138 -1.41089 74.4326 -1.36789C75.0919 -1.32125 75.7617 -1.28981 76.4458 -1.24049C77.859 -1.14622 79.2344 -1.08856 80.5292 -1.06931C82.4575 -1.01228 84.3414 -0.96818 86.2867 -0.897073C87.5036 -0.86275 88.6893 -0.843872 89.8367 -0.840538C91.2111 -0.827113 92.6978 -0.762121 94.2251 -0.648699C94.1526 -0.542284 93.4829 -0.573722 93.0335 -0.577323C91.5835 -0.59501 90.0995 -0.640843 88.6078 -0.675275C87.9358 -0.688714 87.2823 -0.693805 86.6511 -0.690508C85.5958 -0.69492 84.4834 -0.723275 83.3328 -0.775088C81.5152 -0.8321 79.7556 -0.859506 78.0722 -0.857025C77.9402 -0.852809 77.8193 -0.845341 77.7114 -0.834742C77.6889 -0.825562 77.6845 -0.813987 77.6985 -0.801126C77.7126 -0.788266 77.7446 -0.774547 77.7916 -0.76129C77.8386 -0.748032 77.899 -0.73568 77.9669 -0.725409C78.0349 -0.715139 78.1082 -0.707295 78.1798 -0.702633C78.8484 -0.630515 79.5666 -0.553059 80.1971 -0.542163C80.2215 -0.541348 80.2474 -0.539489 80.2731 -0.536717C80.2988 -0.533945 80.3236 -0.530331 80.3457 -0.526137C81.7572 -0.373889 82.9178 -0.399653 84.0174 -0.374883C85.843 -0.307936 87.6028 -0.276666 89.2702 -0.281544C89.5223 -0.281212 89.7944 -0.272509 90.0767 -0.25575C91.8231 -0.187815 93.4562 -0.180217 94.8993 -0.2333C95.4932 -0.246747 96.0454 -0.276937 96.6837 -0.277442C97.0769 -0.279521 97.4191 -0.298786 97.6898 -0.334086C97.9605 -0.369386 98.1541 -0.419991 98.259 -0.482858C98.5282 -0.449759 98.8017 -0.420261 99.0761 -0.394718C99.24 -0.380111 99.3972 -0.376231 99.5159 -0.383875C99.6346 -0.391518 99.7059 -0.410112 99.7156 -0.435896C99.7647 -0.508106 99.3907 -0.54437 99.0662 -0.575293C99.2619 -0.59078 99.4824 -0.59989 99.7225 -0.602406C101.075 -0.618906 102.525 -0.599431 104.043 -0.54441C105.22 -0.478551 106.161 -0.532156 107.4 -0.439282C107.549 -0.423256 107.671 -0.446778 107.808 -0.452425C108.164 -0.482167 108.609 -0.488852 109.102 -0.471896C109.595 -0.45494 110.123 -0.414853 110.639 -0.355112C111.282 -0.518324 112.67 -0.33187 113.695 -0.315112C114.011 -0.232111 113.649 -0.246704 113.633 -0.2239C113.618 -0.201097 113.633 -0.223905 113.509 -0.23726C112.486 -0.119716 111.083 -0.0940858 109.499 -0.16397C109.206 -0.16368 108.926 -0.158325 108.664 -0.147957C108.266 -0.133283 107.817 -0.134748 107.338 -0.152288C106.813 -0.165172 106.332 -0.159053 105.917 -0.134228C105.677 -0.134632 105.475 -0.122196 105.329 -0.0980646C105.182 -0.073933 105.096 -0.038888 105.078 0.00381316C105.238 0.0367321 105.415 0.0668536 105.602 0.0929814C106.581 0.196145 107.557 0.238847 108.339 0.212685C109.698 0.16761 111.317 0.211597 112.762 0.196208C113.74 0.189974 114.78 0.207731 115.863 0.249148C115.863 0.249148 115.835 0.290953 115.832 0.294754C115.96 0.312855 116.095 0.327377 116.228 0.337491C116.228 0.337491 116.228 0.337491 116.241 0.318488C116.182 0.30024 116.101 0.283073 116.009 0.268974L115.687 0.234249C115.906 0.225213 116.11 0.198309 116.338 0.214746C116.819 0.245287 117.278 0.258179 117.688 0.25266C118.099 0.24714 118.452 0.223317 118.726 0.182624C119.212 0.13047 119.817 0.106753 120.501 0.113004C121.026 0.107309 121.531 0.0950719 122.015 0.0763523C122.015 0.0763523 122.046 0.0307486 122.275 0.00651083C122.058 -0.0233847 121.832 -0.0477967 121.606 -0.0656042C120.626 -0.110094 119.644 -0.150785 118.681 -0.181202C118.327 -0.184489 117.993 -0.179392 117.687 -0.166013C116.84 -0.150356 115.888 -0.172577 114.888 -0.231381C114.888 -0.231381 114.689 -0.252748 114.59 -0.263432C114.871 -0.363682 115.84 -0.263319 116.231 -0.331211C116.47 -0.329976 116.889 -0.321438 116.875 -0.339311C116.842 -0.363162 116.838 -0.38532 116.864 -0.404193C116.889 -0.423067 116.942 -0.438192 117.02 -0.44848C117.098 -0.458768 117.199 -0.46397 117.315 -0.463705C117.432 -0.463441 117.56 -0.457717 117.692 -0.44695C118.795 -0.388705 119.833 -0.372507 120.744 -0.39935C121.089 -0.398832 121.476 -0.381569 121.818 -0.37725C122.028 -0.372048 122.22 -0.374941 122.382 -0.38577C123.21 -0.465518 124.324 -0.471342 125.557 -0.402367C126.153 -0.377569 126.709 -0.374252 127.198 -0.392588C127.546 -0.39587 127.694 -0.339171 127.941 -0.31246L128.993 -0.256155L127.642 -0.185603C127.931 -0.0239201 128.16 0.0293925 128.632 0.0394656C129.32 0.0546765 129.99 0.0615487 130.638 0.0600383C131.118 0.0587097 131.514 0.0238902 132.163 0.0857353C132.277 0.0958229 132.388 0.0990876 132.475 0.0949824C133.235 0.0400774 134.151 0.0274762 135.159 0.0580405C135.68 -0.0447741 136.569 0.0551878 137.392 0.135731C137.657 0.0582841 137.176 0.022733 136.889 -0.0245208C137.577 -0.0196841 138.27 -0.0224465 138.98 -0.0111379C139.194 -0.0152546 139.438 -0.00821222 139.693 0.00943567C139.949 0.0270815 140.209 0.0548514 140.453 0.0905715C140.572 0.11365 140.715 0.131021 140.853 0.139075C140.991 0.147128 141.113 0.14525 141.194 0.133827C141.563 0.100141 142.153 0.131167 142.458 0.0742656C142.566 0.0611782 142.721 0.0593528 142.894 0.0691048C143.068 0.0788553 143.249 0.0995559 143.405 0.127493C143.234 0.13621 143.082 0.149935 142.952 0.168368C142.486 0.228247 142.657 0.328299 143.249 0.473756C144.158 0.465756 145.087 0.468029 145.93 0.440613C146.399 0.416004 146.975 0.423697 147.592 0.462829C148.208 0.501961 148.842 0.570978 149.421 0.662121C149.63 0.697169 149.869 0.721442 150.09 0.730123C150.31 0.738805 150.497 0.731256 150.612 0.708975C150.683 0.683205 150.705 0.650591 150.676 0.61396L150.082 0.549858C150.082 0.549858 150.105 0.515653 150.11 0.508052L150.965 0.502306C151.417 0.502107 151.888 0.512182 152.316 0.509311C152.943 0.490223 153.66 0.500862 154.421 0.54057C155.123 0.581289 155.813 0.612065 156.485 0.632632C157.135 0.653801 157.606 0.586317 158.225 0.575539C158.693 0.567416 159.207 0.576098 159.749 0.601244C160.685 0.645844 161.544 0.645926 162.248 0.601484C163.068 0.840932 163.467 0.879864 164.229 0.815162L164.587 0.796678L164.685 0.848036L164.959 0.836743C165.47 0.826683 165.982 0.816628 166.516 0.81304C167.259 0.835262 168.061 0.895048 168.844 0.986559C168.992 1.00259 169.195 1.05703 169.325 1.09966C169.456 1.14229 169.74 1.2709 169.949 1.35462C169.721 1.41573 169.469 1.47417 169.288 1.54443C169.27 1.55643 169.272 1.57075 169.293 1.58622C169.315 1.60169 169.356 1.61789 169.412 1.63352C169.469 1.64914 169.54 1.66375 169.619 1.67619C169.699 1.68862 169.785 1.69852 169.87 1.70509C170.036 1.71926 170.201 1.72871 170.356 1.73304C171.121 1.74051 171.854 1.73496 172.547 1.71643C172.8 1.69029 173.147 1.68781 173.532 1.70938C173.917 1.73095 174.318 1.77534 174.672 1.83551C175.579 1.79938 176.633 1.81005 177.761 1.86678C178.954 1.83228 180.395 1.90204 181.51 1.82646C181.484 1.86446 181.599 1.9299 181.76 1.9676C182.013 2.02486 182.301 2.07793 182.61 2.12456L184.967 2.2156C185.055 2.26241 185.165 2.3098 185.296 2.35715C185.385 2.39455 185.541 2.43115 185.731 2.45919C185.92 2.48723 186.128 2.5045 186.31 2.50734C186.779 2.52122 187.172 2.4902 187.731 2.56684C186.87 2.63928 185.709 2.62965 184.454 2.53968C183.275 2.47125 182.141 2.43705 181.094 2.43835C180.748 2.43783 180.294 2.44183 180.186 2.48322C179.947 2.60021 179.321 2.58172 178.592 2.56014C178.019 2.53652 177.495 2.53916 177.064 2.56787C176.633 2.59658 176.308 2.65053 176.114 2.72527C176.064 2.79748 176.182 2.85912 176.685 2.90114L178.777 3.06963C179.085 3.04796 179.378 3.02232 179.653 2.99281C180.117 2.9536 180.69 2.94284 181.328 2.96136C181.965 2.97988 182.65 3.02718 183.328 3.09958C183.675 3.13698 184.022 3.17437 184.273 3.1566C184.494 3.13619 184.697 3.11176 184.881 3.08347C184.918 3.06452 184.933 3.0427 184.925 3.01886C185.058 3.02995 185.192 3.04436 185.321 3.0616C186.354 3.26274 187.154 3.25926 187.88 3.20708C188.077 3.19158 188.227 3.16693 188.426 3.14762C188.625 3.12831 188.695 3.10325 188.877 3.11054C190.32 3.17651 190.736 2.95618 191.953 2.96503C192.012 2.95642 192.049 2.94356 192.06 2.92762C192.071 2.91168 192.055 2.89318 192.015 2.87382C191.929 2.85634 191.829 2.84131 191.726 2.8301C191.622 2.8189 191.517 2.81189 191.421 2.80972C190.86 2.78144 190.366 2.79011 190.021 2.83424C189.777 2.85228 189.519 2.86664 189.248 2.87727L188.03 2.55821C189.21 2.58745 190.326 2.58726 191.353 2.55763C191.577 2.541 191.956 2.56966 192.271 2.57511L194.59 2.60493C195.067 2.6074 195.473 2.55739 196.138 2.67398C196.138 2.67398 196.577 2.69278 196.694 2.67686C196.811 2.66094 197.331 2.56193 197.64 2.49743C198 2.51582 198.498 2.56544 198.722 2.5488C199.113 2.50794 199.452 2.45555 199.732 2.39258L201.133 2.48247C201.131 2.56233 201.08 2.63746 200.98 2.70671C200.871 2.7735 200.875 2.85367 200.991 2.94067C201.108 3.02766 201.333 3.11902 201.65 3.20727L203.033 3.67466C203.259 3.70596 203.499 3.72703 203.722 3.73501C203.945 3.74298 204.139 3.73748 204.278 3.71925C204.874 3.66513 205.54 3.62282 206.135 3.56869C206.903 3.65149 206.706 3.78523 207.264 3.90255L209.072 4.09753C209.347 4.27821 209.628 4.4513 208.79 4.51179C208.623 4.52236 208.735 4.5916 208.583 4.62005C209.235 4.75565 209.952 4.79624 210.613 4.87976C210.873 4.93982 211.091 5.0034 211.256 5.06743C211.437 5.16383 211.803 5.26231 212.277 5.34159C212.75 5.42087 213.292 5.4746 213.785 5.49118C214.613 5.54193 215.461 5.61817 216.29 5.71647C216.573 5.75065 216.864 5.77556 217.144 5.78951C217.423 5.80345 217.684 5.80612 217.91 5.79733C218.712 5.78186 219.391 5.72863 219.903 5.64112C220.409 5.56686 221.091 5.53107 221.888 5.53699C223.25 5.6839 223.525 5.90526 224.349 6.10023L222.925 6.1221C222.873 6.19811 222.968 6.29394 222.384 6.29219C221.801 6.29044 222.097 6.36316 222.286 6.43661C222.353 6.47356 222.483 6.51156 222.654 6.54419C222.826 6.57682 223.028 6.60207 223.227 6.61566L224.439 6.70967C224.869 6.74544 225.285 6.76072 225.641 6.75382C225.998 6.74692 226.281 6.71811 226.459 6.67056C226.665 6.6254 226.948 6.59486 227.291 6.5808C227.729 6.54396 228.09 6.48917 228.359 6.41851L230.07 6.52146C230.143 6.45045 230.378 6.40067 230.735 6.38051C231.093 6.36036 231.551 6.37108 232.032 6.41086L233.186 6.47405C234.468 6.54299 234.749 6.52029 235.124 6.3201L233.587 5.96251C233.81 5.86832 234.026 5.78553 234.242 5.70274C233.859 5.58494 233.348 5.47351 232.761 5.37978C232.213 5.27907 231.649 5.18152 231.072 5.08752C230.446 4.99147 229.786 4.90795 229.009 4.79968C228.873 4.76465 228.676 4.7026 228.424 4.64281C228.172 4.58472 227.909 4.52777 227.637 4.47219C227.688 4.39618 227.735 4.32777 227.635 4.23953C228.114 4.26769 228.608 4.31693 229.074 4.38282C229.539 4.44871 229.962 4.52917 230.303 4.61696C230.36 4.63253 230.43 4.64715 230.509 4.65984C230.587 4.67253 230.672 4.68299 230.758 4.69051C231.598 4.74445 232 4.85713 232.411 4.9953C232.688 5.06592 233.044 5.12865 233.432 5.17476C234.175 5.25489 234.902 5.35782 235.612 5.44669C235.83 5.4763 236.056 5.50067 236.281 5.5188C237.024 5.57645 237.771 5.65706 238.485 5.75653C238.718 5.78181 238.942 5.81526 239.137 5.8541C239.333 5.89293 239.495 5.93601 239.609 5.97974C239.432 6.02766 239.337 6.08815 239.329 6.15755C239.298 6.20315 239.819 6.29613 240.066 6.36351C240.312 6.4309 239.829 6.39915 239.665 6.40593C238.991 6.41896 238.866 6.44628 239.27 6.59585C239.404 6.64287 239.494 6.68993 239.532 6.73409C239.571 6.77825 239.558 6.81857 239.494 6.85255C239.398 6.99317 239.107 7.10862 238.907 7.24616C239.217 7.33676 239.736 7.43352 239.793 7.54569C239.82 7.57058 239.877 7.59694 239.961 7.62288C240.044 7.64882 240.152 7.67368 240.276 7.69567C240.601 7.74314 240.898 7.79992 241.142 7.86159C241.386 7.92325 241.57 7.98817 241.682 8.05131C241.718 8.07742 241.806 8.10511 241.928 8.12886C242.05 8.1526 242.197 8.17062 242.339 8.1793C242.509 8.18997 242.661 8.18857 242.764 8.17537C242.867 8.16219 242.913 8.13821 242.892 8.10843C242.896 8.05247 242.874 7.99413 242.825 7.93391C242.853 7.89211 242.882 7.8503 242.769 7.78107C243.277 7.80633 243.81 7.85697 244.31 7.92748C244.81 7.99799 245.259 8.08567 245.607 8.18099C245.992 8.2796 246.347 8.38315 246.773 8.49851C246.685 8.62773 246.685 8.62773 247.593 8.85619L252.408 8.9676L253.395 9.11892C254.316 9.25082 254.535 9.24179 255.113 9.17359L255.502 9.10949C256.319 9.19763 257.26 9.29914 257.771 9.13397C257.937 9.24162 258.045 9.27778 258.008 9.29411C257.764 9.45298 257.34 9.58777 256.753 9.69316C256.603 9.71781 256.498 9.7554 256.323 9.77738C255.761 9.90144 255.63 10.0931 255.958 10.3133C256.121 10.4107 256.358 10.5104 256.661 10.6093C256.218 10.7465 255.631 10.8602 254.916 10.9473C254.309 11.0147 253.809 11.105 253.431 11.2155C253.091 11.3269 252.582 11.4107 251.934 11.462C251.605 11.4838 251.365 11.5268 251.237 11.5868C251.2 11.7491 251.287 11.9229 251.497 12.1043C251.536 12.1595 251.648 12.2191 251.825 12.2785C252.001 12.3379 252.237 12.3954 252.513 12.4465C252.513 12.4465 252.646 12.4853 252.71 12.5085C252.763 12.7051 252.564 12.8783 252.125 13.0166C252.053 13.0558 251.906 13.0841 251.7 13.0985C251.493 13.1129 251.235 13.1128 250.953 13.0982C250.358 13.0748 249.801 13.0719 249.226 13.0587C248.605 13.0401 248.058 13.0548 247.643 13.1012C247.228 13.1476 246.96 13.224 246.866 13.3224C246.86 13.3503 246.842 13.3769 246.812 13.4022C246.795 13.4152 246.785 13.4292 246.784 13.444L248.106 13.7661L246.61 13.8944C246.522 14.0236 247.24 14.1011 247.6 14.197L247.378 14.2506C247.091 14.2809 246.705 14.2229 246.356 14.1893L246.009 14.1519L245.968 14.2127C245.752 14.2955 244.965 14.2025 244.658 14.2632C244.351 14.3239 244.57 14.3924 245.03 14.4583C245.35 14.5074 245.694 14.5464 246.035 14.5726C246.376 14.5989 246.706 14.6115 247.001 14.6097C247.176 14.6032 247.322 14.5883 247.429 14.5661C248.05 14.4714 248.736 14.39 249.482 14.3225C250.054 14.2618 250.77 14.2361 251.58 14.2469C251.818 14.2423 252.105 14.2567 252.39 14.2875C252.675 14.3183 252.941 14.3635 253.14 14.4152L253.56 14.4237C253.56 14.4237 253.789 14.477 253.757 14.4858C253.597 14.6437 253.783 14.8368 254.286 15.0365L253.848 15.0545C253.223 15.036 253.619 15.1563 253.526 15.2156C253.082 15.2044 252.504 15.1543 252.294 15.2295L251.978 15.2241L252.102 15.2374L252.252 15.2128L252.84 15.3252C252.561 15.3441 252.36 15.3672 252.113 15.3773C251.977 15.3862 251.869 15.4018 251.795 15.4233C251.721 15.4447 251.683 15.4716 251.683 15.5022C251.683 15.5494 251.61 15.5891 251.47 15.6175C251.33 15.6459 251.127 15.6622 250.881 15.6646C250.588 15.6657 250.42 15.7169 250.248 15.7351L250.995 16.0441C250.995 16.0441 250.624 16.004 250.826 16.0585L250.852 16.0205L251.304 16.0978C251.63 16.1656 251.858 16.182 252.051 16.1335C252.243 16.0849 252.199 16.1495 252.292 16.1309C252.258 16.1803 252.049 16.2148 251.869 16.2444C251.661 16.2676 251.427 16.2847 251.17 16.2954C251.633 16.5127 251.655 16.5192 250.978 16.5767C250.301 16.6342 250.535 16.7206 249.968 16.7329C249.402 16.7452 250.046 16.8922 250.425 16.9209C250.706 16.9397 250.993 16.9691 251.265 17.0069C251.538 17.0448 251.79 17.0902 252.004 17.1401L251.89 17.3073C251.723 17.2935 251.556 17.2755 251.395 17.2539C250.846 17.1621 250.346 17.0756 249.858 17.129L250.091 17.256L248.386 17.1824C248.43 17.2776 248.69 17.3861 249.111 17.4849C249.047 17.5392 249.009 17.5963 248.994 17.6559C248.966 17.6977 248.798 17.6714 248.688 17.6759C248.298 17.6829 247.978 17.7113 247.756 17.7584C247.533 17.8056 247.416 17.8702 247.414 17.9465C247.37 18.0111 247.97 18.1452 248.346 18.1407C249.282 18.1536 250.295 18.2033 251.329 18.2872C251.96 18.2981 252.049 18.1282 253.086 18.2441C253.107 18.3226 252.974 18.3861 252.708 18.4251C252.442 18.4641 252.056 18.4764 251.61 18.4602C251.864 18.6345 253.268 18.6799 253.331 18.862C252.981 18.8491 252.607 18.8189 252.246 18.7742C251.884 18.7295 251.548 18.6719 251.271 18.6072C251.211 18.5913 251.136 18.5766 251.052 18.5645C250.969 18.5524 250.88 18.5433 250.793 18.538C250.707 18.5327 250.626 18.5315 250.557 18.5343C250.489 18.5372 250.436 18.5441 250.403 18.5544C250.598 18.6203 250.812 18.6964 251.056 18.7676C251.3 18.8388 251.358 18.8696 251.534 18.8845C252.847 19.026 253.471 19.281 254.606 19.4483C254.903 19.4804 254.94 19.5823 254.682 19.5708C254.437 19.5592 254.215 19.5608 254.041 19.5751C253.867 19.5895 253.747 19.6161 253.697 19.6521C253.506 19.6941 253.269 19.7275 252.991 19.7514C254.156 20.0131 255.544 20.2442 257.026 20.4233C257.307 20.4586 257.6 20.4802 257.861 20.4848C258.689 20.4851 259.567 20.5058 260.478 20.5467C260.801 20.5578 261.099 20.5568 261.357 20.5436C262.202 20.5124 262.873 20.5807 263.487 20.7733L264.502 21.0786C264.468 21.128 264.298 21.1831 264.166 21.2587L264.959 21.4217L271.01 21.0462L272.224 21.4098L273.966 21.3896C274.099 21.4001 274.233 21.4145 274.362 21.4323C274.714 21.5396 274.99 21.6428 275.372 21.7452C275.754 21.8476 276.437 21.86 276.913 21.9807C277.389 22.1014 277.866 22.1039 278.455 22.1756C278.51 22.269 278.453 22.3531 278.287 22.4227C278.232 22.5025 277.933 22.5518 277.881 22.6278C277.887 22.7046 277.776 22.7698 277.558 22.8175C277.339 22.8652 277.021 22.8939 276.632 22.901C275.542 23.0646 274.227 23.181 272.728 23.2469C272.597 23.2517 272.487 23.2627 272.408 23.2794C272.328 23.296 272.279 23.3179 272.264 23.3437C272.266 23.4182 272.166 23.4827 271.971 23.5322C271.776 23.5818 271.492 23.6153 271.138 23.6302C271.044 23.6332 270.973 23.6426 270.934 23.6571C270.8 23.6665 270.702 23.6845 270.65 23.7093C270.599 23.7341 270.594 23.7649 270.638 23.7988C270.682 23.8326 270.772 23.8684 270.9 23.9025C271.028 23.9367 271.19 23.9681 271.369 23.9938C271.63 24.0351 271.896 24.0747 272.166 24.1123C272.15 24.1351 271.882 24.1388 271.921 24.1593C272.027 24.2249 272.052 24.2864 271.993 24.3388C271.934 24.3912 271.794 24.4332 271.583 24.4614L273.029 24.9927C273.906 25.0663 274.767 25.1911 275.448 25.3434C275.449 25.3684 275.41 25.3893 275.335 25.4041C275.259 25.4189 275.15 25.427 275.019 25.4277C274.666 25.4385 274.332 25.4597 273.952 25.4717C273.72 25.4807 273.526 25.5004 273.383 25.5298C273.24 25.5592 273.15 25.5976 273.118 25.6428L273.967 25.8405C273.695 25.8886 273.493 25.9117 273.314 25.9413C273.415 26.0034 273.59 26.0677 273.825 26.1291C274.06 26.1905 274.348 26.2474 274.668 26.2954C274.753 26.3053 274.84 26.3126 274.924 26.3167C275.008 26.3208 275.087 26.3218 275.156 26.3196C275.814 26.2518 276.583 26.3715 277.33 26.4847C278.077 26.5979 278.482 26.6661 279.034 26.7541L280.089 26.7659C280.356 26.8076 280.594 26.8566 280.785 26.9091C280.975 26.9615 281.113 27.0159 281.186 27.0678C281.129 27.1515 280.629 27.1056 280.33 27.1143C279.623 27.1663 278.692 27.1552 277.694 27.0828C277.446 27.0561 277.192 27.0777 276.951 27.0802C276.431 27.0906 275.932 27.1076 275.455 27.1309C275.14 27.1527 274.847 27.1796 274.576 27.2116C274.503 27.318 275.644 27.4002 274.996 27.4528C275.219 27.4768 275.303 27.5103 275.417 27.4982C276.151 27.5673 276.875 27.6014 277.503 27.5967C278.71 27.582 280.08 27.6305 281.501 27.7382C283.035 27.8498 284.506 27.8966 285.794 27.8749C286.284 27.8736 286.832 27.8964 287.396 27.9417C288.063 28.0043 288.724 28.0437 289.338 28.0572C289.541 28.0577 289.768 28.0684 289.999 28.0884C290.23 28.1083 290.46 28.1371 290.669 28.1722C290.65 28.1988 290.451 28.2181 290.496 28.2311C291.131 28.4301 291.389 28.6374 292.367 28.8408C293.035 28.9129 293.803 28.9957 294.24 28.9001C294.677 28.8045 294.521 28.7223 293.651 28.4775C293.839 28.474 294.067 28.4854 294.293 28.5098C294.519 28.5343 294.73 28.5701 294.889 28.6111L295.641 28.7942L296.32 28.9694C296.26 29.0568 296.213 29.1252 296.164 29.1974C296.087 29.2741 296.172 29.3675 296.408 29.4644C296.55 29.5173 296.674 29.5702 296.779 29.6227C297.203 29.8325 297.326 30.0308 297.133 30.1953C296.765 30.4319 296.252 30.6496 295.601 30.8459C294.913 31.0369 294.536 31.2777 293.969 31.4859C293.68 31.5806 293.329 31.6655 292.919 31.7398C292.142 31.9048 291.291 32.0619 290.512 32.2307C289.732 32.3996 288.852 32.5209 287.986 32.66C286.698 32.8252 285.305 32.9679 283.815 33.0872C282.893 33.1918 281.947 33.2936 281.094 33.4138C280.087 33.5493 278.904 33.6465 277.574 33.7032C276.4 33.7711 275.351 33.8714 274.447 34.0023C274.352 34.0165 274.277 34.0345 274.224 34.0558C274.061 34.1893 273.605 34.2834 272.925 34.3237C272.967 34.3628 273.02 34.4025 273.084 34.4427C273.178 34.4907 273.198 34.5355 273.14 34.5715C273.082 34.6075 272.95 34.6329 272.76 34.6445C272.216 34.6775 271.764 34.7337 271.425 34.8104C271.3 34.8297 271.222 34.8577 271.199 34.8922C271.175 34.9266 271.207 34.9664 271.29 35.0081C271.364 35.051 271.369 35.0905 271.306 35.1215C271.242 35.1524 271.112 35.1734 270.933 35.1817C270.472 35.2223 269.98 35.255 269.457 35.2795C268.346 35.3337 267.053 35.333 265.657 35.2776C265.509 35.2616 265.359 35.2863 265.186 35.2676C264.199 35.2055 263.282 35.1959 262.546 35.2399C261.684 35.257 260.783 35.2536 259.873 35.2616C258.56 35.2563 257.348 35.2889 256.272 35.3587C255.042 35.2913 254.351 35.4084 253.313 35.4107C252.354 35.4227 251.446 35.4516 250.596 35.497C249.225 35.5573 247.861 35.61 246.51 35.6806C245.243 35.7142 244.077 35.7785 243.03 35.8723C242.629 35.9147 241.903 35.8486 241.63 35.9375C241.357 36.0263 240.806 36.0159 240.361 36.0453L238.955 36.1181C238.714 36.1355 238.448 36.1464 238.162 36.1509C236.856 36.1568 235.951 36.2755 234.738 36.2997L234.614 36.2863C232.461 36.4627 229.997 36.5595 227.295 36.5738C225.716 36.628 223.99 36.6254 222.315 36.665C221.916 36.7443 220.972 36.6466 220.471 36.719C219.97 36.7914 219.151 36.7439 218.505 36.7558C217.859 36.7678 217.228 36.7975 216.537 36.7965C215.938 36.7968 215.431 36.8292 215.064 36.8906C214.227 36.9921 213.206 37.0517 212.047 37.0669C210.514 37.0933 209.064 37.1531 207.505 37.14C207.527 37.2139 207.431 37.2769 207.228 37.3223C207.024 37.3677 206.719 37.394 206.345 37.3984C204.678 37.4266 203.166 37.5001 201.477 37.5219L201.025 37.5221L195.972 37.5646C194.611 37.5728 193.299 37.5863 191.91 37.5956C191.39 37.5395 191.378 37.6361 191.018 37.6177C190.917 37.5701 190.799 37.5492 190.622 37.575L190.583 37.632L184.816 37.7076C182.559 37.7629 180.184 37.7795 177.712 37.7572C177.125 37.7628 176.578 37.7817 176.079 37.8136C175.616 37.8252 175.133 37.8304 174.633 37.829C173.957 37.8146 173.296 37.8074 172.654 37.8073C170.964 37.829 169.191 37.8173 167.341 37.8013C165.492 37.7854 164.09 37.8137 162.443 37.8116C161.328 37.8096 160.218 37.8 159.064 37.7775C158.513 37.767 157.834 37.7101 157.263 37.6893C156.693 37.6686 156.506 37.6689 156.431 37.7016C156.183 37.7931 155.558 37.7339 155.059 37.725C154.086 37.7097 153.948 37.6785 153.684 37.442L154.878 37.3668C155.171 37.3425 155.539 37.3382 155.947 37.3544C156.355 37.3705 156.789 37.4066 157.208 37.459C157.372 37.4814 157.545 37.4992 157.714 37.5112C157.884 37.5232 158.048 37.5292 158.197 37.5289C159.402 37.5161 160.589 37.4892 161.747 37.4672L161.917 37.4529L161.927 37.2419C161.774 37.2212 161.615 37.204 161.457 37.1911L155.649 37.0542C154.316 37.0206 152.932 36.9448 151.624 36.9138C150.316 36.8829 149.611 36.864 148.596 36.832C148.168 36.8138 147.731 36.7899 147.289 36.7604C147.315 36.7401 147.33 36.7185 147.333 36.6958C147.357 36.6616 147.388 36.616 147.2 36.5794C146.995 36.5278 146.721 36.4837 146.433 36.456C146.163 36.4376 145.901 36.4273 145.657 36.4252C144.479 36.4076 143.133 36.2961 141.907 36.1147L141.48 36.2358C139.639 36.1677 137.77 36.1008 135.847 36.0362C135.462 36.0186 135.058 35.9848 134.665 35.9373C134.244 35.8919 133.857 35.7971 133.414 35.7452C132.976 35.7078 132.541 35.6787 132.117 35.6584C132.232 35.6272 132.383 35.6023 132.566 35.5844C132.746 35.5782 132.877 35.5587 132.941 35.5288C133.004 35.499 132.996 35.4603 132.918 35.4184C132.781 35.3465 132.721 35.2788 133.019 35.2702C133.295 35.2538 133.492 35.2183 133.587 35.1679C133.683 35.1175 133.673 35.0543 133.558 34.9857C133.508 34.9456 133.473 34.9063 133.452 34.8682L133.328 34.8548C132.92 34.7128 132.104 34.6616 131.519 34.5454C131.242 34.5117 130.956 34.4923 130.706 34.4903C130.058 34.4654 129.427 34.4545 128.758 34.423C128.438 34.4086 128.103 34.3822 127.774 34.3455C127.303 34.2947 127.254 34.2894 126.981 34.1049C127.405 34.1081 127.741 34.0805 127.933 34.0269C128.124 33.9732 128.159 33.8967 128.032 33.8103C127.682 33.6216 127.312 33.4226 125.729 33.2886C126.245 33.2819 126.742 33.2688 127.217 33.2492C127.356 33.245 127.459 33.2312 127.514 33.2095C127.569 33.1879 127.573 33.1594 127.525 33.1281C127.477 33.0967 127.379 33.0639 127.245 33.034C127.111 33.0042 126.948 32.9786 126.776 32.9609C125.94 32.8541 125.068 32.7827 124.258 32.7546C123.575 32.7422 122.959 32.7491 122.162 32.7488L121.221 32.6473C121.236 32.6245 121.098 32.5933 121.133 32.5808C121.372 32.4638 121.636 32.3494 121.908 32.2237C121.474 32.1558 121.098 32.0739 120.823 31.9872C120.548 31.9006 120.386 31.8128 120.354 31.7338C120.33 31.71 120.336 31.6883 120.372 31.6703C120.407 31.6522 120.47 31.6383 120.558 31.6294C120.805 31.6141 120.997 31.5849 121.117 31.5441C121.237 31.5033 121.282 31.4519 121.25 31.394L120.518 31.1804C118.314 31.028 116.151 30.9191 114.067 30.8558L112.185 30.8079C111.958 30.7508 112.029 30.7257 112.242 30.7243C112.456 30.7229 113.056 30.7387 113.476 30.7472C113.838 30.7584 114.16 30.7511 114.41 30.7259C114.66 30.7007 114.83 30.6585 114.903 30.6033L114.271 30.3598C114.302 30.3142 114.346 30.2496 114.689 30.2539C114.923 30.2486 115.095 30.2257 115.178 30.1887C115.261 30.1518 115.25 30.103 115.146 30.0503C115.131 30.0122 115.154 29.9774 115.216 29.9477C115.723 29.9452 116.227 29.9466 116.687 29.935C116.901 29.9311 117.082 29.917 117.217 29.8936C117.352 29.8701 117.439 29.838 117.47 29.7992C117.487 29.7614 117.447 29.7183 117.352 29.6734C117.258 29.6285 117.113 29.5831 116.929 29.5408C116.208 29.4886 115.549 29.4879 115.096 29.539C114.934 29.579 114.675 29.6009 114.351 29.6017C114.028 29.6025 113.656 29.5823 113.285 29.5436C112.86 29.499 112.435 29.4794 112.088 29.4883C111.741 29.4972 111.494 29.5341 111.391 29.5922C110.955 29.5696 110.568 29.5524 110.186 29.5275C109.736 29.4961 109.31 29.4869 108.955 29.5008C108.387 29.5106 107.775 29.5049 107.132 29.4837C105.281 29.4309 103.427 29.3819 101.634 29.3599C101.16 29.3536 100.75 29.3705 100.281 29.3567C99.8117 29.3428 99.4407 29.3803 98.8541 29.3048C98.7424 29.293 98.6299 29.2855 98.5257 29.2827C98.4214 29.28 98.3282 29.2821 98.2534 29.2889C97.2234 29.3486 96.0157 29.3571 94.7012 29.3137C92.9009 29.3031 91.034 29.2731 89.231 29.2663C88.7023 29.2722 88.2025 29.2879 87.7371 29.3132C87.3829 29.3286 87.0119 29.339 86.6261 29.3444C86.3304 29.3492 86.0476 29.335 86.0975 29.4179C86.1474 29.5008 85.7043 29.4489 85.4489 29.4336C84.5714 29.3934 83.6746 29.339 82.7685 29.271C81.8756 29.197 81.0008 29.154 80.1964 29.1445C79.6154 29.1389 79.0162 29.16 78.2692 29.0468C78.2977 29.005 78.3261 28.9631 78.4887 28.9195C77.8796 28.7994 77.1845 28.696 76.461 28.618C75.7376 28.54 75.0065 28.4895 74.3284 28.4708L73.3932 28.2434C73.163 28.2167 72.9279 28.1973 72.7023 28.1863C72.4768 28.1753 72.2654 28.173 72.0811 28.1794C71.9387 28.1827 71.7651 28.1743 71.5922 28.1556C71.4194 28.137 71.2588 28.1094 71.14 28.0779C70.9625 28.0379 70.7456 28.0034 70.5165 27.9787C70.2875 27.954 70.0564 27.9402 69.8523 27.939C69.2098 27.9143 68.5239 27.8572 67.8649 27.7736C67.6939 27.7246 67.5867 27.674 67.5567 27.628C67.5266 27.582 67.5749 27.5426 67.6956 27.5147C67.8903 27.4654 67.9996 27.4026 68.0169 27.3302C68.0343 27.2577 67.9593 27.1771 67.7964 27.0931C67.7131 27.0416 67.6852 26.9928 67.7145 26.9497C67.7439 26.9066 67.8298 26.87 67.9671 26.8423C68.4798 26.714 68.3426 26.6421 67.5039 26.4292C67.3677 26.3938 67.2035 26.3606 67.0217 26.3319C66.8399 26.3031 66.6445 26.2794 66.4479 26.2623C65.9867 26.2276 65.5318 26.2018 65.0915 26.1854C64.8438 26.1586 64.5899 26.1802 64.3045 26.1698C62.8779 26.1179 62.669 26.0342 62.207 25.8538L61.8702 25.7237C61.2457 25.6183 60.5627 25.5307 59.8704 25.4673C59.1781 25.4039 58.4938 25.3663 57.8667 25.3571C57.6174 25.3565 57.3308 25.3384 57.0509 25.3059C56.1399 25.2063 55.2173 25.1374 54.3442 25.1037C53.8002 25.0847 53.2137 25.0357 52.6553 24.9624C52.0969 24.8892 51.5902 24.7948 51.1962 24.6907C50.8423 24.5969 50.3792 24.5128 49.8715 24.4499C49.2771 24.3858 49.2221 24.3105 49.554 24.2525C49.8859 24.1945 50.4418 24.1198 50.9352 24.0588C51.1069 24.0381 51.2132 24.0043 51.2425 23.9614C51.2717 23.9184 51.2226 23.868 51.1007 23.8156C51.0224 23.7259 51.0088 23.6408 51.0603 23.5623C51.0878 23.5297 51.0688 23.4924 51.0046 23.4527C50.9404 23.4131 50.8325 23.3721 50.6881 23.3326C50.5437 23.293 50.3662 23.2558 50.1676 23.2235C49.969 23.1912 49.7539 23.1644 49.5367 23.1451C48.6205 23.0463 47.7289 22.9501 46.7946 22.8779C46.403 22.8438 46.0118 22.8016 45.6306 22.7523C44.8504 22.6304 44.0157 22.5293 43.1749 22.4548C42.7759 22.4216 42.3858 22.3634 42.089 22.2928C41.153 22.1029 40.2905 21.9031 39.5171 21.6972C39.3307 21.6334 39.0869 21.5711 38.8008 21.5142C38.5147 21.4574 38.1925 21.4073 37.8546 21.367C37.5822 21.3376 37.3605 21.2729 37.1505 21.2298C36.9979 21.1302 36.9816 21.0379 37.1031 20.9618C37.2247 20.8858 37.48 20.8283 37.8453 20.7948C38.1916 20.7547 38.5157 20.708 38.815 20.6587C39.1759 20.6189 39.6049 20.5949 40.0862 20.5878C40.6561 20.5664 41.0775 20.5052 41.2955 20.4122C39.7353 20.244 38.2517 20.0024 36.8842 20.0588L35.8451 19.906C35.8865 19.8452 35.9227 19.792 35.9563 19.7425C36.2034 19.6526 36.2806 19.5392 36.1813 19.4119C36.0995 19.3503 36.1069 19.2943 36.2027 19.2495C36.2986 19.2046 36.4795 19.1726 36.7272 19.1567C38.1945 18.9926 39.8914 18.8819 41.2674 18.6958C41.6988 18.6609 42.2038 18.645 42.7613 18.6489C43.3005 18.6377 43.278 18.5537 42.6574 18.45C42.309 18.3959 41.954 18.344 41.5936 18.2945C40.0043 18.2863 39.3569 18.5346 37.5432 18.4655L36.7026 18.1382C36.4753 18.1331 36.2546 18.1311 36.0421 18.1322L33.001 18.2652C32.7477 18.2719 32.5506 18.2946 32.4319 18.3309C32.3133 18.3671 32.2779 18.4154 32.3299 18.4702C32.3504 18.5373 32.3086 18.5989 32.2057 18.6526C32.1394 18.6903 32.1818 18.7403 32.3237 18.7918C32.6434 18.9079 32.2332 18.9249 31.9741 18.954C31.9079 18.9569 31.8315 18.9566 31.7494 18.9531C31.6673 18.9497 31.5812 18.9432 31.496 18.934C31.4107 18.9248 31.3281 18.9131 31.2529 18.8996C31.1777 18.8861 31.1114 18.871 31.0578 18.8552C30.6013 18.7448 30.2021 18.6283 29.7534 18.5064C30.0719 18.3899 29.6971 18.1985 30.1942 18.093C30.2498 18.0719 30.2721 18.0463 30.2596 18.0176C30.2471 17.9889 30.2002 17.9577 30.1217 17.9261C29.9193 17.8444 29.8229 17.7648 29.8422 17.6953C29.8615 17.6257 29.9959 17.5687 30.2318 17.53L30.2602 17.4882C29.6382 17.3477 29.803 17.2227 29.5586 17.0739L28.9602 16.9767C27.4714 16.7427 27.4688 16.7465 26.187 16.7551C25.9287 16.6661 26.2569 16.6525 26.5031 16.6424L28.5647 16.5425C29.9126 16.4757 31.2998 16.4295 32.8055 16.4043C34.3113 16.379 35.99 16.2949 37.5464 16.2343C37.6251 16.2296 37.6853 16.2203 37.7219 16.2073C37.7586 16.1942 37.7706 16.1777 37.757 16.1591C37.6952 16.1391 37.6142 16.1197 37.5201 16.1025C37.426 16.0853 37.3211 16.0707 37.2133 16.0597C36.718 16.0063 36.2098 15.9718 35.682 15.9272L34.6981 15.8496L34.3954 15.7476C34.1984 15.6855 34.0638 15.6098 33.8017 15.5653C33.5858 15.532 33.3514 15.5068 33.1228 15.4922C32.8943 15.4776 32.6802 15.4741 32.5026 15.4822C32.0103 15.5026 31.5649 15.532 31.0948 15.5588C30.6246 15.5857 30.3655 15.6148 29.9579 15.628C29.1296 15.6339 28.3291 15.6497 27.5599 15.6753C26.912 15.7357 26.3128 15.8074 25.7659 15.8897C25.4248 15.9223 25.1058 15.9613 24.5233 15.9189C24.2469 15.8804 24.0085 15.8299 23.8504 15.7762C23.6923 15.7226 23.6246 15.6693 23.6594 15.6258C23.6907 15.5918 23.7792 15.5648 23.9165 15.5475C24.0539 15.5302 24.2356 15.5231 24.4444 15.5269C25.0292 15.5206 25.5698 15.4996 26.0556 15.4641C26.7317 15.3998 27.5548 15.3721 28.4768 15.3825C28.7895 15.3918 28.9991 15.3573 29.2726 15.346C29.5461 15.3347 29.7778 15.3067 30.0827 15.3273C31.0301 15.3805 31.4843 15.299 32.052 15.246C32.2442 15.2225 32.3632 15.1845 32.3961 15.1362C32.4289 15.0879 32.3743 15.0312 32.2382 14.9723C31.9762 14.855 31.6557 14.7371 31.2816 14.6203C31.0891 14.5629 30.8425 14.5084 30.5611 14.4611C30.2797 14.4137 29.9712 14.3748 29.6597 14.3475C29.4733 14.2756 29.3739 14.205 29.3704 14.1419C29.3669 14.0789 29.4595 14.0254 29.6397 13.9863C30.0991 13.8972 30.5064 13.8065 31.5358 13.8563C32.0197 13.8753 32.4752 13.879 32.884 13.8671C33.7909 13.8508 34.837 13.8864 35.9237 13.9706C36.2049 13.9921 36.4812 14.0068 36.7446 14.0142C38.6233 14.0659 40.4133 14.0917 42.2085 14.1099C43.1595 14.1187 44.1183 14.116 45.111 14.1415C47.4392 14.1968 49.5585 14.1684 51.8057 14.1864C52.9826 14.1957 54.036 14.1584 54.9107 14.0766C55.0811 14.0492 55.2274 14.0172 55.3479 13.981C54.7683 13.886 54.1316 13.8107 53.4989 13.7625C52.8661 13.7143 52.2585 13.6946 51.7343 13.7055C51.4461 13.7321 51.0735 13.7369 50.6583 13.7195C50.243 13.7021 49.8013 13.6631 49.3824 13.6068L50.6003 13.575C51.4079 13.5601 52.235 13.5555 53.0205 13.5342C54.2682 13.4974 55.4247 13.4385 56.7168 13.4147C57.76 13.3928 58.6936 13.3369 59.4881 13.2486C60.0621 13.1842 60.7176 13.1385 61.4414 13.1125C61.9559 13.0986 61.9559 13.0986 62.2848 12.9669C62.0239 12.8816 61.6864 12.8697 61.3686 12.868C59.4629 12.8144 57.6494 12.805 55.9649 12.84C55.1151 12.8431 54.3611 12.8793 53.7392 12.9467C53.5869 12.9752 53.1973 12.9617 52.8847 12.9524C51.9044 12.9384 50.9676 12.9425 50.0853 12.9646C48.8655 13.0016 47.507 12.9928 46.0625 12.9387C45.7886 12.8724 46.1038 12.8779 46.1194 12.8551C47.2381 12.8126 48.3348 12.7636 49.4757 12.7276C49.7876 12.7147 50.121 12.7084 50.4722 12.7086C51.7831 12.7309 52.8756 12.669 53.5964 12.5315C53.6326 12.4783 54.1068 12.4846 54.3164 12.4501C54.4195 12.4202 54.4882 12.385 54.5204 12.3456C54.2151 12.2474 53.8699 12.2469 53.6041 12.2468C52.833 12.2577 52.0911 12.2785 51.3821 12.309C50.723 12.338 49.9935 12.3458 49.2132 12.3321C48.6374 12.3189 48.1451 12.3393 47.5641 12.3337C47.2489 12.322 46.9226 12.3033 46.592 12.2778C46.9602 12.2094 47.4606 12.1673 48.0582 12.1545C48.5113 12.1136 49.0779 12.1013 49.1503 11.9949C48.9363 11.9187 48.6979 11.9175 48.5065 11.9254C48.1079 11.9251 47.723 11.9299 47.3537 11.9398C46.5705 11.9614 45.7226 11.9617 44.8278 11.9407C44.3566 11.9328 43.9094 11.9352 43.4939 11.9477C42.5521 11.9645 41.6495 12.0017 40.7873 12.0189C39.0209 12.0364 37.4099 12.0993 35.7127 12.1324C35.3349 12.1406 34.9963 12.1694 34.4985 12.1198C34.0006 12.0701 33.9784 12.0637 33.9197 12.0329C33.7803 11.9815 33.7381 11.9316 33.8018 11.8937C33.9005 11.8583 34.0929 11.8385 34.3446 11.838C35.8618 11.7816 37.3009 11.7025 38.6528 11.601C39.2477 11.5807 39.769 11.5392 40.1984 11.4781C40.539 11.4359 40.943 11.4081 41.3977 11.3953C42.0591 11.3648 42.7486 11.3425 43.4635 11.3284C43.7961 11.3209 44.0789 11.2983 44.2953 11.2621C44.5116 11.2259 44.6572 11.1767 44.7234 11.1176L43.8471 10.9211C43.7094 10.9119 43.5728 10.904 43.4379 10.8973L36.1644 11.0389L35.4441 11.0428C34.6546 11.0311 34.4617 11.0021 33.7128 10.7745C35.4219 10.7209 36.7654 10.5648 37.6095 10.3217C37.4066 10.2956 37.1986 10.2731 36.9904 10.2549C35.6246 10.1975 34.3334 10.1822 33.1668 10.2097C32.4738 10.2125 31.7612 10.205 31.046 10.2013C31.2552 10.0892 32.0565 10.1226 32.5787 10.0973C33.8265 10.0578 34.93 9.97612 35.8538 9.85495C36.1722 9.8077 36.5707 9.77749 37.0309 9.7657C37.4914 9.76164 37.8761 9.73304 38.1515 9.68239C38.4269 9.63175 38.5846 9.56059 38.6109 9.47512C38.6542 9.39773 38.7477 9.32581 38.8899 9.26045C38.6384 9.1677 38.2389 9.07888 37.7666 9.01066C37.2942 8.94244 36.7814 8.8995 36.3244 8.88991C35.3488 8.85172 34.3368 8.7892 33.3143 8.70395C32.805 8.66095 32.3055 8.63627 31.8484 8.63151C31.4453 8.62785 30.9871 8.59679 30.5437 8.54308C30.1004 8.48936 29.6961 8.41594 29.3927 8.33401C28.9832 8.23272 28.6009 8.1303 28.2187 8.02788C27.8365 7.92546 27.393 7.79604 26.9469 7.67041C26.5535 7.65076 26.1705 7.63813 25.803 7.63269C25.517 7.6373 25.1834 7.6236 24.8414 7.59322C24.4994 7.56284 24.1633 7.51704 23.8728 7.46123C24.0432 7.40617 24.2358 7.35759 24.4387 7.2938C24.1602 7.20958 23.9582 7.12368 23.8452 7.04135C23.7321 6.95902 23.7103 6.88197 23.781 6.81492C23.8224 6.75411 23.5197 6.65211 23.4151 6.57147C23.2804 6.50196 23.2551 6.43709 23.3425 6.38536C23.4299 6.33363 23.6259 6.29747 23.9048 6.28161C24.2507 6.25234 24.5322 6.20825 24.7378 6.15117C24.8058 6.13635 24.8404 6.11605 24.8385 6.09214C24.8366 6.06822 24.7981 6.04146 24.7267 6.01428C24.6553 5.98709 24.5532 5.96037 24.4298 5.93655C24.3063 5.91273 24.1654 5.89258 24.02 5.87793C23.5745 5.83639 23.1321 5.80947 22.7182 5.79871C22.0051 5.77891 21.3225 5.76647 20.6702 5.7614C19.9489 5.75376 19.1464 5.70661 18.3443 5.62475C17.6261 5.54729 16.9822 5.47784 16.6311 5.32982C16.2799 5.1818 15.7185 5.18651 15.2867 5.07876C15.5293 4.98162 15.9603 4.91413 16.5364 4.8831C16.9133 4.87202 17.228 4.84294 17.4602 4.79773C17.6924 4.75252 17.8369 4.69217 17.8846 4.62057L16.5739 4.32009C15.5272 4.17864 14.948 4.28751 13.817 4.2308L14.9824 4.11988C15.0058 4.10891 15.0146 4.09604 15.0083 4.08187C14.8951 3.85753 14.7151 3.80956 13.5238 3.68515L12.8552 3.61304L11.797 3.52745C11.6275 3.48147 11.5103 3.43353 11.4571 3.38841C11.4038 3.34329 11.4164 3.30258 11.4935 3.27035C11.6486 3.21614 11.6957 3.14687 11.6306 3.06891C11.528 3.01728 11.5195 2.96967 11.6066 2.93436C11.6938 2.89905 11.8711 2.87826 12.1077 2.87561C12.2966 2.8715 12.3106 2.81182 12.4134 2.77803C12.5155 2.73145 12.6902 2.69571 12.9257 2.67324C13.1611 2.65076 13.4517 2.64208 13.7779 2.64779C14.7394 2.65245 15.6426 2.63497 16.4715 2.59565L16.323 2.57962C17.187 2.61414 17.9947 2.61833 18.7069 2.59198C19.4206 2.55881 20.3365 2.58009 21.0946 2.55986C21.7117 2.5645 22.1815 2.5186 22.4044 2.43189C22.6202 2.3491 23.4045 2.36843 24.0052 2.38425C24.3609 2.39449 24.7048 2.39883 25.0331 2.39721C25.4737 2.37848 26.0246 2.39614 26.5939 2.44726C26.7648 2.46297 26.933 2.47129 27.0826 2.4714C28.5299 2.49289 29.9747 2.51818 31.4025 2.52939C31.732 2.52293 32.1185 2.53772 32.5165 2.57203C32.6837 2.58693 32.8465 2.5931 32.983 2.58971C35.239 2.55564 37.7848 2.64257 39.9965 2.59556C40.2646 2.58445 40.5614 2.58215 40.8785 2.58869C41.591 2.61631 42.2097 2.59853 42.6407 2.53807C42.8733 2.50591 43.1714 2.48819 43.5161 2.48604C43.8609 2.48388 44.2446 2.49735 44.6429 2.52557C45.3056 2.56293 45.9182 2.56698 46.4158 2.5373C47.3862 2.50987 48.4066 2.49859 49.4692 2.50355C49.7947 2.50835 50.0809 2.49769 50.3055 2.4724C50.5302 2.4471 50.6872 2.40786 50.7645 2.3577C50.5036 2.27244 50.2183 2.26206 49.9474 2.26956C48.8973 2.25013 47.8498 2.2269 46.8194 2.21775C45.8971 2.19159 45.0121 2.1836 44.1774 2.19388C43.763 2.20548 43.2459 2.17903 42.7389 2.12032C42.1176 2.04595 41.4777 2.009 40.9485 2.01695C40.5562 2.01892 40.1421 2.01252 39.7122 1.99783C39.437 1.98011 39.155 1.94969 38.895 1.90969C38.7918 1.89232 38.6795 1.8777 38.5653 1.8668C38.4511 1.85589 38.3375 1.84893 38.2317 1.84635C38.1259 1.84376 38.0302 1.84562 37.9508 1.8518C37.8714 1.85798 37.8101 1.86836 37.7707 1.88225C37.3726 1.99842 36.4826 1.93913 35.7204 1.92628C34.5783 1.72967 33.7283 1.84604 32.6609 1.73499C32.5765 1.72763 32.4933 1.72317 32.4164 1.72189C32.3396 1.72062 32.2708 1.72256 32.214 1.72758C30.1483 1.79442 27.7407 1.73872 25.5718 1.7618C25.3326 1.76518 25.055 1.75361 24.7705 1.72841C22.9112 1.56163 21.1236 1.51428 19.7571 1.59563C19.5909 1.60295 19.4017 1.60326 19.1983 1.59655C18.2641 1.53026 17.3706 1.50384 16.5926 1.51947C15.3733 1.51442 14.2009 1.51852 12.962 1.50319C12.1079 1.48139 11.3587 1.50469 10.7894 1.57075C10.7713 1.59735 10.392 1.56869 10.1015 1.56591C9.93446 1.49893 9.78961 1.43844 9.61736 1.37906C9.46339 1.30561 9.23272 1.23127 8.94109 1.16111C8.64946 1.09094 8.3037 1.02658 7.9271 0.972379C7.28323 0.902933 7.21884 0.802157 7.66938 0.765082C8.83065 0.642418 10.2909 0.592213 11.9427 0.618151C13.3236 0.620224 14.7292 0.624974 16.1297 0.637319C16.9465 0.647909 17.8076 0.671434 18.6023 0.675553C18.8704 0.684604 19.1459 0.697942 19.4258 0.715424C19.7692 0.74077 20.1027 0.754579 20.4082 0.756113C21.3892 0.734767 22.484 0.753363 23.6404 0.811011C24.064 0.823583 24.4707 0.827819 24.8546 0.823659C25.7626 0.808011 26.7471 0.819527 27.7818 0.857902C28.425 0.879541 29.0486 0.890856 29.6462 0.891726C29.8572 0.894091 30.0291 0.875913 30.2324 0.88968C32.0217 1.03372 33.2886 0.929678 34.899 0.985065C35.6817 1.00051 36.4294 1.00055 37.1318 0.985197C38.5024 0.98594 39.9113 1.00173 41.3527 1.03251C43.2588 1.08307 45.0251 1.06553 46.845 1.0864C47.2043 1.09079 47.5513 1.09004 47.8833 1.08416C49.4984 1.04531 51.2526 1.05355 53.1032 1.10868C53.5234 1.11664 53.9008 1.1069 54.2118 1.08008C54.5228 1.05325 54.7607 1.00991 54.9105 0.95277C54.9739 0.913556 54.9328 0.86262 54.7952 0.809789C54.5668 0.742319 54.3088 0.676213 54.0256 0.61256L43.7243 0.398966C43.2916 0.387812 42.8697 0.381808 42.4606 0.380977C41.2575 0.37912 40.0174 0.362502 38.7465 0.33121C37.4905 0.301816 36.2908 0.307035 35.074 0.298184C34.7156 0.29522 34.3477 0.288224 33.9719 0.27722C31.4314 0.19012 28.9541 0.13692 26.5575 0.118004C25.5493 0.11532 24.46 0.075346 23.4321 0.0623886C22.4043 0.0494328 20.9986 0.0446884 19.7793 0.0396399L16.0042 0.0404145C15.2617 0.0378374 14.5387 0.0455282 13.8184 0.0494222C12.9442 -0.228444 12.6429 -0.293574 11.4764 -0.41531C11.0774 -0.460217 10.6715 -0.487015 10.3063 -0.492568C9.14831 -0.470601 7.69536 -0.562041 6.59727 -0.549934C5.93466 -0.555905 5.37241 -0.525037 4.96808 -0.460489C4.61708 -0.409831 4.21572 -0.369746 3.77018 -0.340842C2.54969 -0.578549 2.44213 -0.732934 3.36022 -0.793011C3.60896 -0.806979 3.95158 -0.802659 4.1312 -0.832238C4.23427 -0.850253 4.37506 -0.860557 4.54237 -0.862337C4.70967 -0.864117 4.89886 -0.85733 5.09509 -0.842502C5.71442 -0.803601 6.29491 -0.794452 6.77832 -0.815975C7.23326 -0.844459 7.79091 -0.843321 8.39752 -0.812669C8.84328 -0.764591 9.23507 -0.832479 9.62057 -0.852094C10.0061 -0.871707 10.3224 -0.906941 10.9245 -0.854237C11.0348 -0.843743 11.1442 -0.837443 11.2445 -0.835822C11.3448 -0.8342 11.4332 -0.837299 11.5029 -0.844881C12.1496 -0.878823 12.9213 -0.875257 13.7553 -0.834474C15.0345 -0.794341 16.2347 -0.792837 17.3143 -0.830011C17.9605 -0.862537 18.5115 -0.920219 18.9457 -1.00081C19.064 -1.02776 19.2398 -1.04392 19.4561 -1.04774C20.5423 -1.03093 21.7217 -0.967647 22.9182 -0.861981C23.369 -0.819641 23.8192 -0.786151 24.2592 -0.762224C25.1635 -0.709068 26.0381 -0.679282 26.8571 -0.673748C28.0473 -0.67287 29.2864 -0.652418 30.5636 -0.612578C31.3517 -0.590396 32.1112 -0.582208 32.8329 -0.588105C33.5747 -0.590884 34.3668 -0.573963 35.1911 -0.537735C36.0108 -0.508212 36.7332 -0.525223 37.2712 -0.586707C37.4483 -0.619839 37.591 -0.659182 37.6966 -0.704004C36.4963 -0.849851 35.255 -0.923973 34.2226 -0.911444C33.8304 -0.921105 33.5048 -0.911352 33.0915 -0.96816L33.0786 -0.949158C32.9964 -0.936828 32.8723 -0.933919 32.7301 -0.940987C32.5878 -0.948053 32.4373 -0.964602 32.3073 -0.98748C32.3564 -1.05969 32.403 -1.1281 32.4366 -1.17751C33.2232 -1.16879 33.987 -1.1695 34.7241 -1.17963C35.3454 -1.19421 36.1889 -1.06652 36.7266 -1.11458C37.7756 -1.05448 38.4434 -1.13747 39.3841 -1.11352C40.3247 -1.08957 41.3608 -1.01047 42.3014 -0.986519C43.1222 -0.973379 43.9192 -0.970523 44.6879 -0.977964C44.9533 -0.988409 45.2592 -0.985959 45.5868 -0.970762C46.0474 -0.942172 46.4758 -0.937381 46.8229 -0.956942C47.17 -0.976503 47.4218 -1.01963 47.5494 -1.08137C47.4292 -1.1392 47.2674 -1.21377 47.0807 -1.29102C47.4241 -1.35449 47.9456 -1.38122 48.5679 -1.36722L49.4473 -1.37029C49.6803 -1.36861 49.8584 -1.38577 49.9448 -1.41821C50.0312 -1.45066 50.0193 -1.4959 49.9115 -1.54459C48.2441 -1.7897 48.1827 -1.81672 46.959 -1.65906L45.3342 -1.73233L45.3616 -1.73345ZM67.3384 -1.06014L67.2146 -1.07349L67.3384 -1.06014ZM269.822 25.018L269.793 25.0599L269.824 25.0142L270.097 25.0436L270.115 25.017L269.822 25.018ZM230.271 6.69413C229.886 6.64852 229.497 6.60659 229.107 6.56859C229.005 6.5627 228.91 6.56137 228.829 6.56471C228.748 6.56806 228.684 6.57597 228.642 6.58779C228.611 6.6334 228.829 6.66504 229.027 6.68641C229.277 6.71517 229.532 6.73345 229.766 6.73936C230.001 6.74526 230.206 6.73859 230.36 6.72002L230.584 6.70338L230.271 6.69413ZM31.9553 17.8097C32.2088 17.8174 32.4492 17.8187 32.6705 17.8134C33.6526 17.7766 34.5928 17.723 35.5996 17.6888C36.8699 17.602 38.3296 17.5666 39.924 17.5841C40.5468 17.5926 41.0731 17.5644 41.4412 17.5029C41.6616 17.4699 41.9461 17.4507 42.2772 17.4463L46.4922 17.3461C46.7527 17.3253 46.978 17.2961 47.1626 17.2593C46.7912 17.2192 46.5435 17.1925 46.395 17.1765C46.0867 17.172 45.8217 17.1842 45.6266 17.2119C45.417 17.2589 45.0627 17.2775 44.6341 17.264C44.2015 17.2528 43.7796 17.2468 43.3705 17.246C42.598 17.2483 41.8203 17.2583 41.0453 17.2644C40.7437 17.3951 39.8537 17.3358 39.0915 17.3229L38.5028 17.3288C36.5782 17.3965 34.7398 17.4897 32.9964 17.6079C32.6595 17.6279 32.3692 17.6598 32.1346 17.7026C32.0462 17.736 32.0178 17.7776 32.0518 17.8242L31.928 17.8109L31.9553 17.8097ZM117.899 30.3023C118.366 30.3112 118.852 30.3295 119.35 30.3569C119.734 30.3848 120.109 30.4018 120.459 30.4071C122.422 30.4364 124.468 30.5041 126.568 30.6091C126.843 30.6251 127.107 30.6329 127.35 30.6323L129.07 30.6056C129.611 30.5906 129.622 30.5754 129.227 30.3738C128.9 30.3346 128.569 30.2989 128.237 30.2669C128.039 30.2455 127.717 30.2108 127.641 30.2435C127.182 30.3326 126.344 30.2749 125.639 30.256C123.599 30.2073 121.495 30.1353 119.435 30.0764C118.999 30.0619 118.578 30.0546 118.174 30.0546C117.923 30.0515 117.695 30.0572 117.498 30.0714C117.44 30.0728 117.392 30.0771 117.357 30.0838C117.321 30.0905 117.299 30.0995 117.291 30.1103C117.284 30.1211 117.292 30.1334 117.314 30.1463C117.336 30.1593 117.372 30.1726 117.42 30.1854C117.589 30.2303 117.784 30.2733 117.998 30.313L117.899 30.3023ZM132.845 1.03641L134.855 1.0125C135.096 1.00994 135.3 0.983028 135.558 0.994536C136.934 1.03101 138.208 1.02085 139.326 0.96449C139.707 0.941492 140.153 0.936893 140.638 0.950948C142.125 0.992595 143.528 0.99431 144.808 0.95604C145.636 0.948359 146.41 0.922563 147.12 0.879034C147.175 0.868929 147.209 0.85521 147.22 0.838813C147.231 0.822416 147.219 0.803726 147.185 0.78402C147.176 0.77157 147.151 0.758175 147.113 0.744762C147.075 0.731349 147.024 0.718231 146.964 0.70632C146.904 0.694408 146.836 0.683986 146.765 0.675762C146.694 0.667539 146.621 0.661712 146.552 0.658687C145.655 0.599768 144.804 0.579241 144.068 0.598776C143.385 0.622147 142.65 0.628986 141.874 0.619184C141.132 0.616606 140.628 0.692817 139.71 0.634665C139.322 0.615516 138.98 0.621821 138.741 0.652523C138.261 0.70341 137.59 0.706241 136.849 0.66051C136.405 0.637366 135.981 0.627441 135.593 0.631114C134.651 0.647844 133.751 0.681318 132.878 0.713662C132.603 0.721144 132.309 0.722176 131.999 0.716736L127.629 0.653402C126.579 0.633973 125.532 0.610744 124.502 0.601589C123.659 0.581708 122.875 0.587934 122.176 0.620048C121.432 0.653801 120.62 0.667504 119.756 0.660898C118.415 0.679369 117.081 0.686435 115.62 0.68395C114.689 0.685478 113.735 0.680538 112.762 0.665323C112.27 0.645741 111.852 0.661688 111.589 0.710095C111.429 0.749947 111.052 0.71748 110.739 0.708232C109.071 0.619089 107.507 0.597967 106.156 0.646336C105.984 0.654218 105.794 0.657072 105.592 0.654848C104.291 0.653187 102.942 0.642383 101.693 0.642264C101.364 0.646021 101.055 0.656333 100.768 0.673069C100.799 0.700372 100.886 0.729964 101.013 0.755708C101.139 0.781453 101.293 0.801375 101.445 0.81134C102.627 0.887617 103.768 0.927913 104.82 0.930534C106.571 0.920818 108.406 0.942664 110.304 0.995838C111.778 1.04945 113.121 1.03816 114.234 0.962817C115.105 0.906599 116.237 0.927751 117.437 1.02264C117.95 1.06796 118.448 1.08608 118.863 1.07453C119.263 1.05938 119.721 1.06305 120.212 1.08534C121.246 1.12772 122.24 1.14738 123.176 1.14393C124.09 1.12833 124.943 1.08571 125.882 1.07278C126.821 1.05985 128.252 1.06726 129.41 1.04529C130.568 1.02333 131.713 1.02037 132.845 1.03641ZM49.5615 -1.18662C49.6676 -1.06911 50.0432 -0.995967 50.4472 -0.964633C51.84 -0.825497 53.2169 -0.766291 54.3468 -0.796948C54.9572 -0.839711 55.7709 -0.82325 56.6281 -0.750799C57.6261 -0.675484 58.5589 -0.662994 59.2622 -0.715529C59.4345 -0.724709 59.5665 -0.744115 59.6463 -0.772019C59.6618 -0.794822 59.6902 -0.836627 59.6954 -0.844229C59.6215 -0.863506 59.5309 -0.881367 59.4305 -0.896435C59.3302 -0.911504 59.2228 -0.923375 59.1166 -0.931134L54.5032 -1.06565L53.6992 -1.09525C52.2308 -1.17281 50.8316 -1.2037 49.5615 -1.18662ZM58.6361 0.673329C59.3561 0.865217 59.3587 0.861409 59.7275 0.905274C61.5071 1.08748 63.2855 1.18584 64.8511 1.18864C65.199 1.18809 65.4943 1.16956 65.7119 1.13463C65.8239 1.1299 65.8952 1.11485 65.9102 1.09278C65.9252 1.07071 65.8828 1.0434 65.7921 1.01681L65.2196 0.881629C64.1797 0.823103 63.1548 0.776601 62.1511 0.742401C60.9824 0.702017 59.9467 0.700458 58.7351 0.684007L58.6361 0.673329ZM117.813 29.4526C118.483 29.7167 118.486 29.7129 119.609 29.781C120.392 29.8293 121.151 29.8576 121.865 29.8652C122.736 29.8735 123.63 29.8883 124.499 29.9005C124.711 29.9089 124.891 29.9019 125.003 29.8809C125.116 29.8598 125.153 29.8263 125.108 29.7867C124.994 29.7437 124.816 29.7021 124.602 29.6687C124.388 29.6353 124.152 29.612 123.931 29.6026L123.456 29.5963C122.881 29.5831 122.283 29.5635 121.726 29.5606C121.365 29.5716 120.947 29.5631 120.505 29.5359C120.062 29.5087 119.607 29.4634 119.175 29.4037L117.813 29.4526ZM62.2187 -0.841315C62.3979 -0.795579 62.6005 -0.751773 62.8211 -0.711065C63.6757 -0.598233 64.5801 -0.534149 65.357 -0.531376C65.7244 -0.524386 66.0604 -0.549341 66.4345 -0.513077C67.1053 -0.464617 67.7555 -0.438804 68.3498 -0.437034C68.3498 -0.437034 68.5165 -0.447615 68.5712 -0.449874L68.685 -0.617098C68.4036 -0.655837 68.1102 -0.687486 67.8182 -0.710586C66.8384 -0.755076 65.8756 -0.785493 64.9153 -0.819711C63.9551 -0.853929 63.6203 -0.869647 62.9923 -0.884345C62.7122 -0.876265 62.4531 -0.861852 62.2187 -0.841315ZM41 19.9479L42.2823 20.2902C42.6972 20.32 43.0848 20.3254 43.3862 20.3056C43.6876 20.2858 43.8861 20.2419 43.9517 20.1806C44.0573 20.152 44.0679 20.1095 43.9812 20.0621C43.8945 20.0147 43.7173 19.9661 43.4867 19.9265C43.2648 19.8795 43.0115 19.8374 42.7424 19.8028C42.4733 19.7682 42.1943 19.7417 41.9225 19.7252L41 19.9479ZM51.676 18.2438C50.8374 18.1857 50.0352 18.162 49.3309 18.1744C48.8872 18.2084 48.2859 18.1975 47.6503 18.1441C46.4946 18.0376 45.3805 18.0081 44.543 18.0619C44.543 18.0619 44.512 18.1075 44.37 18.1207C44.2281 18.134 44.791 18.1661 44.9149 18.1795C45.823 18.2122 46.7363 18.2372 47.5258 18.249C48.0159 18.2485 48.5344 18.2592 49.0722 18.2811C49.8122 18.3149 50.514 18.3258 51.1501 18.3135C51.1501 18.3135 51.3963 18.3034 51.6735 18.2476L51.676 18.2438ZM141.241 0.416304C140.841 0.351844 140.406 0.299453 139.971 0.263066C139.535 0.226682 139.11 0.207246 138.726 0.206211C138.432 0.202848 138.195 0.219866 138.051 0.254578C137.907 0.289289 137.865 0.339713 137.931 0.397873C138.228 0.429926 138.624 0.472661 138.847 0.4967C139.62 0.494347 140.279 0.463438 141.241 0.416304ZM216.227 5.84836C215.905 5.79647 215.551 5.7568 215.205 5.73387C214.859 5.71094 214.534 5.70569 214.268 5.71871C214.131 5.72436 214.224 5.78332 214.201 5.81752C214.186 5.82528 214.186 5.83492 214.202 5.84545C214.217 5.85598 214.247 5.867 214.289 5.87735C214.331 5.88771 214.383 5.89702 214.44 5.90431C214.496 5.91161 214.555 5.91661 214.611 5.91881C214.959 5.94116 215.288 5.94781 215.569 5.93818C215.849 5.92854 216.071 5.90291 216.216 5.86357L216.227 5.84836ZM221.251 6.59016C221.201 6.55954 221.095 6.52763 220.953 6.50027C220.81 6.47291 220.641 6.45194 220.475 6.44121C220.182 6.43977 219.916 6.44826 219.687 6.46636C219.438 6.48033 219.617 6.56898 219.954 6.62158C220.096 6.64269 220.248 6.65916 220.398 6.66967C220.548 6.68019 220.691 6.68446 220.817 6.68215C220.942 6.67983 221.046 6.671 221.121 6.65635C221.195 6.6417 221.238 6.62164 221.246 6.59776L221.251 6.59016ZM75.2614 -0.515627C74.5118 -0.625032 73.9349 -0.597509 73.3003 -0.64148C72.6656 -0.685454 72.5093 -0.690079 72.5943 -0.619716C72.6793 -0.549352 73.1144 -0.563623 73.3868 -0.534241C73.7548 -0.495254 74.1251 -0.472869 74.4562 -0.46958C74.7872 -0.466292 75.066 -0.482235 75.2614 -0.515627ZM231.458 17.996C231.061 17.9714 230.672 17.9541 230.297 17.9442C230.248 17.9544 230.217 17.9677 230.206 17.9834C230.196 17.999 230.206 18.0167 230.235 18.0354C230.235 18.0354 230.489 18.0914 230.638 18.1074C231.185 18.1624 231.212 18.0837 231.458 17.996ZM287.573 28.1892C287.842 28.2631 287.967 28.3133 288.183 28.3487C288.281 28.361 288.384 28.37 288.481 28.3749C288.579 28.3798 288.67 28.3806 288.748 28.3771C288.843 28.3558 288.865 28.3233 288.81 28.2859C288.81 28.2859 288.536 28.2196 288.432 28.2165C288.135 28.2009 287.846 28.1917 287.573 28.1892ZM62.5025 -1.14115C61.9329 -1.20258 61.3881 -1.26135 60.9937 -1.18966C61.8982 -1.1125 61.8982 -1.1125 62.5025 -1.14115ZM71.7276 -0.439868C71.1525 -0.571253 70.815 -0.583176 70.5389 -0.56808C70.4802 -0.564277 70.4414 -0.555803 70.4283 -0.543943C70.4152 -0.532083 70.4285 -0.517482 70.4663 -0.502346C70.504 -0.487211 70.5641 -0.472367 70.6375 -0.460058C70.7109 -0.447751 70.7936 -0.438647 70.8731 -0.434129C71.173 -0.430346 71.4591 -0.432266 71.7276 -0.439868ZM101.329 -0.384311C101.341 -0.403314 101.357 -0.426117 101.208 -0.442142C101.169 -0.450278 101.124 -0.457274 101.076 -0.462432C101.028 -0.467589 100.98 -0.470723 100.936 -0.47152C100.936 -0.47152 100.921 -0.448715 100.91 -0.433513L101.329 -0.384311ZM121.884 31.1646L121.553 31.1819L121.702 31.198L122.094 31.2076L121.884 31.1646ZM238.359 6.29364C238.235 6.28028 238.111 6.26693 238.093 6.29353C238.067 6.29765 238.051 6.3036 238.046 6.31087C238.041 6.31814 238.047 6.32653 238.065 6.33534C238.065 6.33534 238.238 6.35404 238.312 6.36205L238.359 6.29364ZM219.075 6.50642C218.994 6.50489 218.92 6.50667 218.859 6.51166L218.843 6.53446L219.091 6.56117L219.075 6.50642ZM51.022 11.9397C50.9264 11.9259 50.825 11.9149 50.7249 11.9077L50.601 11.8943C50.601 11.8943 50.7341 11.9331 50.8083 11.9412C50.8826 11.9492 50.9426 11.9393 51.022 11.9397Z" fill="#E56C03"/>
</g>
</svg>
